<svg width="29" height="29" viewBox="0 0 29 29" fill="none" xmlns="http://www.w3.org/2000/svg">
<circle cx="14.5" cy="14.5" r="14.5" fill="#E5F8ED"/>
<path d="M14.5 8C13.2144 8 11.9577 8.38122 10.8888 9.09545C9.81988 9.80968 8.98676 10.8248 8.49479 12.0126C8.00282 13.2003 7.87409 14.5072 8.1249 15.7681C8.3757 17.029 8.99477 18.1872 9.90381 19.0962C10.8128 20.0052 11.971 20.6243 13.2319 20.8751C14.4928 21.1259 15.7997 20.9972 16.9874 20.5052C18.1752 20.0132 19.1903 19.1801 19.9046 18.1112C20.6188 17.0423 21 15.7856 21 14.5C21 13.6464 20.8319 12.8012 20.5052 12.0126C20.1786 11.2239 19.6998 10.5074 19.0962 9.90381C18.4926 9.30022 17.7761 8.82144 16.9874 8.49478C16.1988 8.16813 15.3536 8 14.5 8ZM17.1 15.15H14.5C14.3276 15.15 14.1623 15.0815 14.0404 14.9596C13.9185 14.8377 13.85 14.6724 13.85 14.5V11.9C13.85 11.7276 13.9185 11.5623 14.0404 11.4404C14.1623 11.3185 14.3276 11.25 14.5 11.25C14.6724 11.25 14.8377 11.3185 14.9596 11.4404C15.0815 11.5623 15.15 11.7276 15.15 11.9V13.85H17.1C17.2724 13.85 17.4377 13.9185 17.5596 14.0404C17.6815 14.1623 17.75 14.3276 17.75 14.5C17.75 14.6724 17.6815 14.8377 17.5596 14.9596C17.4377 15.0815 17.2724 15.15 17.1 15.15Z" fill="#0DCE5E"/>
</svg>
