<svg width="29" height="29" viewBox="0 0 29 29" fill="none" xmlns="http://www.w3.org/2000/svg">
<circle cx="14.5" cy="14.5" r="14.5" fill="#FDF8E8"/>
<path d="M19.058 9.90963C17.9966 8.84128 16.5957 8.17674 15.0969 8.03056C13.598 7.88438 12.0951 8.26573 10.8473 9.10886C9.59942 9.95199 8.68485 11.2041 8.26122 12.6492C7.83759 14.0944 7.93144 15.6421 8.5266 17.0255C8.58863 17.154 8.60898 17.2988 8.58482 17.4395L8.01555 20.1758C7.99362 20.2807 7.9981 20.3895 8.02859 20.4922C8.05907 20.595 8.11461 20.6885 8.19022 20.7645C8.25219 20.826 8.32598 20.8744 8.40714 20.9066C8.4883 20.9389 8.57515 20.9543 8.66245 20.9521H8.79183L11.5605 20.3958C11.7012 20.3789 11.8439 20.3989 11.9745 20.454C13.3579 21.0492 14.9056 21.143 16.3508 20.7194C17.7959 20.2957 19.048 19.3812 19.8911 18.1333C20.7343 16.8855 21.1156 15.3826 20.9694 13.8837C20.8233 12.3849 20.1587 10.984 19.0904 9.92256L19.058 9.90963ZM11.8969 15.1301C11.769 15.1301 11.6439 15.0921 11.5375 15.021C11.4311 14.95 11.3482 14.8489 11.2993 14.7307C11.2503 14.6125 11.2375 14.4824 11.2625 14.357C11.2874 14.2315 11.349 14.1162 11.4395 14.0257C11.53 13.9353 11.6452 13.8737 11.7707 13.8487C11.8962 13.8237 12.0263 13.8366 12.1445 13.8855C12.2627 13.9345 12.3637 14.0174 12.4348 14.1238C12.5059 14.2302 12.5438 14.3552 12.5438 14.4832C12.5438 14.6547 12.4757 14.8193 12.3543 14.9406C12.233 15.0619 12.0685 15.1301 11.8969 15.1301ZM14.4845 15.1301C14.3565 15.1301 14.2315 15.0921 14.1251 15.021C14.0187 14.95 13.9358 14.8489 13.8868 14.7307C13.8379 14.6125 13.8251 14.4824 13.85 14.357C13.875 14.2315 13.9366 14.1162 14.0271 14.0257C14.1175 13.9353 14.2328 13.8737 14.3583 13.8487C14.4838 13.8237 14.6138 13.8366 14.732 13.8855C14.8503 13.9345 14.9513 14.0174 15.0224 14.1238C15.0934 14.2302 15.1314 14.3552 15.1314 14.4832C15.1314 14.6547 15.0632 14.8193 14.9419 14.9406C14.8206 15.0619 14.6561 15.1301 14.4845 15.1301ZM17.0721 15.1301C16.9441 15.1301 16.8191 15.0921 16.7127 15.021C16.6063 14.95 16.5234 14.8489 16.4744 14.7307C16.4255 14.6125 16.4126 14.4824 16.4376 14.357C16.4626 14.2315 16.5242 14.1162 16.6146 14.0257C16.7051 13.9353 16.8204 13.8737 16.9459 13.8487C17.0713 13.8237 17.2014 13.8366 17.3196 13.8855C17.4378 13.9345 17.5389 14.0174 17.6099 14.1238C17.681 14.2302 17.719 14.3552 17.719 14.4832C17.719 14.6547 17.6508 14.8193 17.5295 14.9406C17.4082 15.0619 17.2436 15.1301 17.0721 15.1301Z" fill="#F4CC4E"/>
</svg>
